<?xml version="1.0" encoding="UTF-8"?>
<svg width="140px" height="140px" viewBox="0 0 140 140" version="1.1" xmlns="http://www.w3.org/2000/svg" xmlns:xlink="http://www.w3.org/1999/xlink">
    <!-- Generator: Sketch 49 (51002) - http://www.bohemiancoding.com/sketch -->
    <title>Group</title>
    <desc>Created with Sketch.</desc>
    <defs></defs>
    <g id="Symbols" stroke="none" stroke-width="1" fill="none" fill-rule="evenodd">
        <g id="ico/04-Hydrodynamics-Large">
            <g id="Group">
                <path d="M0,70 C0,31.34 31.34,0 70,0 C108.66,0 140,31.34 140,70 C140,108.66 108.66,140 70,140 C31.34,140 0,108.66 0,70" id="Fill-1" fill="#EAF0F8"></path>
                <path d="M58.8613,65.7061 C60.4753,61.4391 64.4283,58.3221 69.1553,57.9191" id="Stroke-3" stroke="#3A638F" stroke-width="1.228"></path>
                <path d="M72.085,81.9668 C71.471,82.0628 70.841,82.1128 70.2,82.1128 C66.259,82.1128 62.758,80.2318 60.545,77.3188" id="Stroke-5" stroke="#3A638F" stroke-width="1.228"></path>
                <path d="M79.8672,62.6836 C81.4062,64.7156 82.3192,67.2476 82.3192,69.9936 C82.3192,71.9586 81.8512,73.8166 81.0202,75.4576" id="Stroke-7" stroke="#3A638F" stroke-width="1.228"></path>
                <path d="M63.1309,69.9932 C63.1309,66.0892 66.2959,62.9242 70.1999,62.9242 C74.1049,62.9242 77.2699,66.0892 77.2699,69.9932 C77.2699,73.8972 74.1049,77.0622 70.1999,77.0622 C66.2959,77.0622 63.1309,73.8972 63.1309,69.9932" id="Fill-9" fill="#9ECAFA"></path>
                <path d="M67.5068,69.9932 C67.5068,68.5062 68.7128,67.3002 70.1998,67.3002 C71.6878,67.3002 72.8928,68.5062 72.8928,69.9932 C72.8928,71.4802 71.6878,72.6862 70.1998,72.6862 C68.7128,72.6862 67.5068,71.4802 67.5068,69.9932" id="Fill-11" fill="#3A638F"></path>
                <path d="M63.1309,69.9932 C63.1309,66.0892 66.2959,62.9242 70.1999,62.9242 C74.1049,62.9242 77.2699,66.0892 77.2699,69.9932 C77.2699,73.8972 74.1049,77.0622 70.1999,77.0622 C66.2959,77.0622 63.1309,73.8972 63.1309,69.9932 Z" id="Stroke-13" stroke="#3A638F" stroke-width="2.456"></path>
                <path d="M79.8789,62.6748 C75.0059,62.3248 70.4529,62.3348 67.1709,63.5968 C70.5369,51.4778 80.3619,36.5258 95.7849,34.9828 C109.2509,33.6358 116.6559,59.2208 102.5179,63.2608 C97.0139,64.8328 88.0019,63.2558 79.8789,62.6748" id="Fill-15" fill="#9ECAFA"></path>
                <path d="M66.1758,75.8155 C53.9968,78.9595 36.1348,77.9265 27.0878,65.3415 C19.1888,54.3535 37.6428,35.1475 48.2108,45.3725 C54.7918,51.7395 58.8838,69.9185 66.1758,75.8155" id="Fill-17" fill="#9ECAFA"></path>
                <path d="M81.1807,75.127 C88.1807,84.371 93.1327,97.681 87.7277,109.655 C82.1607,121.99 56.3017,115.611 59.8717,101.348 C62.0967,92.464 75.7937,79.83 77.2547,70.567 C78.5977,71.935 79.9217,73.466 81.1807,75.127" id="Fill-19" fill="#9ECAFA"></path>
                <path d="M79.8789,62.6748 C75.0059,62.3248 70.4529,62.3348 67.1709,63.5968 C70.5369,51.4778 80.3619,36.5258 95.7849,34.9828 C109.2509,33.6358 116.6559,59.2208 102.5179,63.2608 C97.0139,64.8328 88.0019,63.2558 79.8789,62.6748" id="Stroke-21" stroke="#3A638F" stroke-width="2.456"></path>
                <path d="M66.1758,75.8155 C53.9968,78.9595 36.1348,77.9265 27.0878,65.3415 C19.1888,54.3535 37.6428,35.1475 48.2108,45.3725 C54.7918,51.7395 58.8838,69.9185 66.1758,75.8155 Z" id="Stroke-23" stroke="#3A638F" stroke-width="2.456"></path>
                <path d="M81.1807,75.127 C88.1807,84.371 93.1327,97.681 87.7277,109.655 C82.1607,121.99 56.3017,115.611 59.8717,101.348 C62.0967,92.464 75.7937,79.83 77.2547,70.567 C78.5977,71.935 79.9217,73.466 81.1807,75.127" id="Stroke-25" stroke="#3A638F" stroke-width="2.456"></path>
            </g>
        </g>
    </g>
</svg>