<svg xmlns="http://www.w3.org/2000/svg" xmlns:xlink="http://www.w3.org/1999/xlink" width="209" height="207" viewBox="0 0 209 207">
    <defs>
        <path id="a" d="M209.227 0v206.865H0V0h209.227z"/>
        <linearGradient id="b" x1="0%" y1="0%" y2="100%">
            <stop offset="0%" stop-color="#57EEFF"/>
            <stop offset="100%" stop-color="#4D6CD3"/>
        </linearGradient>
    </defs>
    <g fill="none" fill-rule="evenodd" transform="translate(.329)">
        <mask id="c" fill="#fff">
            <use xlink:href="#a"/>
        </mask>
        <path fill="url(#b)" d="M98.893 161.99c0 1.567-1.281 2.837-2.862 2.837H59.76c-8.394 0-15.222-6.77-15.222-15.09v-32.408l-13.656 13.54a2.88 2.88 0 0 1-4.049 0 2.82 2.82 0 0 1 0-4.013l16.217-16.079a6.137 6.137 0 0 1 4.35-1.782c1.646 0 3.191.632 4.351 1.782l16.217 16.08a2.82 2.82 0 0 1 0 4.012 2.868 2.868 0 0 1-2.024.831 2.868 2.868 0 0 1-2.025-.831l-13.656-13.54v32.407c0 5.192 4.26 9.416 9.497 9.416h36.27c1.58 0 2.862 1.27 2.862 2.838m50.255-115.167h-36.27c-1.58 0-2.862-1.27-2.862-2.837 0-1.568 1.281-2.838 2.862-2.838h36.27c8.394 0 15.222 6.77 15.222 15.09v32.408l13.656-13.54a2.88 2.88 0 0 1 4.049 0 2.82 2.82 0 0 1 0 4.013l-16.217 16.078a6.134 6.134 0 0 1-4.35 1.783 6.134 6.134 0 0 1-4.35-1.783L140.94 79.119a2.82 2.82 0 0 1 0-4.013 2.88 2.88 0 0 1 4.049 0l13.656 13.54V56.239c0-5.192-4.26-9.416-9.497-9.416m.226 89.766c-.121 1.484-1.374 2.608-2.85 2.608-.078 0-.156-.003-.235-.009a148.074 148.074 0 0 1-7.258-.762c-1.567-.206-2.67-1.632-2.462-3.185.207-1.554 1.643-2.646 3.213-2.442 2.229.293 4.574.538 6.971.732 1.576.127 2.75 1.496 2.62 3.058m11.262 64.6c-28.072 0-41.587-5.865-41.986-8.082v-67.104c0-.001 0-.005.003-.012v-.001c.044-.12.465-1.046 3.123-2.337.412-.201.855-.397 1.32-.59 2.368-.95 5.693-1.942 9.999-2.8 6.853-1.336 15.388-2.172 24.423-2.328l.066-.002c.323-.005.648-.008.972-.012a182 182 0 0 1 2.08-.014c1.423 0 2.798.019 4.146.048.315.006.637.01.946.019 24.57.65 36.471 5.916 36.891 8.015-.393 1.985-11.762 7.25-36.461 8-1.58.048-2.823 1.357-2.774 2.923.048 1.537 1.319 2.751 2.86 2.751l.09-.001c3.248-.098 25.569-.976 36.289-6.596v60.029c-.399 2.229-13.914 8.095-41.987 8.095m32.395-85.678c-8.687-2.115-20.192-3.28-32.395-3.28-.675 0-1.348.004-2.018.012-.21.001-.42.005-.63.008-.48.006-.956.015-1.431.025l-.662.014c-.601.016-1.2.034-1.796.054l-.934.037c-.303.013-.606.025-.908.039a277.946 277.946 0 0 0-1.635.082c-6.546.356-12.681 1.061-18.036 2.078-.059.01-.116.022-.174.033a86.774 86.774 0 0 0-3.686.785c-.16.038-.327.074-.485.113-.112.027-.215.056-.326.083-.443.111-.88.223-1.308.338-.196.053-.386.107-.579.161a64.83 64.83 0 0 0-1.08.313c-.121.037-.246.072-.366.109a48.244 48.244 0 0 0-1.596.524 34.02 34.02 0 0 0-3.73 1.516c-2.977 1.447-4.908 3.126-5.784 5.009l-.009.02c-.117.254-.218.51-.296.77a5.82 5.82 0 0 0-.166.737l-.022.154a5.723 5.723 0 0 0-.054.745v67.116c0 4.478 5.153 8.004 15.316 10.478 8.687 2.115 20.193 3.28 32.395 3.28 12.203 0 23.708-1.165 32.395-3.28 10.163-2.475 15.316-6 15.316-10.478V125.99c0-4.542-5.01-7.97-15.316-10.48M35.764 24.53c-.123 1.484-1.375 2.607-2.85 2.607a2.65 2.65 0 0 1-.237-.01c-2.485-.2-4.927-.457-7.256-.762-1.568-.206-2.67-1.632-2.463-3.186.207-1.553 1.643-2.645 3.212-2.442 2.237.293 4.582.54 6.974.735 1.575.127 2.748 1.497 2.62 3.058M4.844 81.52V13.856c0-.005.004-.011.004-.015.045-.126.458-1.05 3.113-2.349.697-.34 1.471-.67 2.314-.986 1.733-.638 3.882-1.284 6.467-1.888.051-.011.102-.024.155-.037l.137-.03c7.508-1.695 17.478-2.74 28.069-2.863a190.685 190.685 0 0 1 9.093.114c.2.008.408.013.607.021.726.03 1.437.064 2.14.1l.22.01c21.618 1.164 32.046 5.936 32.39 7.913-.343 2.005-11.766 7.336-36.828 8.092-1.58.047-2.823 1.356-2.775 2.922.048 1.538 1.32 2.752 2.86 2.752l.089-.001c3.282-.1 25.863-.982 36.656-6.664l.001 60.562c-.358 2.253-13.925 8.181-42.356 8.181S5.202 83.763 4.844 81.518m90.436 0v-67.67c0-.237-.02-.47-.05-.7a6.389 6.389 0 0 0-.034-.261c-.018-.1-.043-.198-.065-.297-.864-3.947-5.874-6.994-15.275-9.283C71.511 1.275 60.586.115 48.931.01A161.2 161.2 0 0 0 46.06.005C28.824.108 13.329 2.539 5.428 6.404 1.492 8.329-.62 10.658-.857 13.334c-.016.17-.024.341-.024.514v67.67c0 10.955 31.45 13.85 48.08 13.85s48.081-2.895 48.081-13.85" mask="url(#c)"/>
    </g>
</svg>
